# Blender 4.3.2
# www.blender.org
mtllib MeeleeSlashMesh2.mtl
o Plane
v -1.011579 -0.000001 -12.400152
v -2.005151 0.000000 0.000000
v 0.000000 -0.000002 -32.905369
v 1.011579 -0.000001 -12.400152
v 2.005151 0.000000 0.000000
v -1.011579 0.000001 12.400152
v 0.000000 0.000002 32.905369
v 1.011579 0.000001 12.400152
v -1.011579 1.231995 -12.400152
v -2.005151 1.231995 0.000000
v 0.000000 1.231993 -32.905369
v 1.011579 1.231995 -12.400152
v 2.005151 1.231995 0.000000
v 1.011579 1.231996 12.400152
v 0.000000 1.231998 32.905369
v -1.011579 1.231996 12.400152
vn -0.7090 -0.7037 -0.0459
vn -0.0000 -0.5371 -0.8435
vn 0.7090 -0.7037 -0.0459
vn 0.7242 -0.6896 -0.0000
vn 0.7090 -0.7037 0.0459
vn -0.0000 -0.5371 0.8435
vn -0.7090 -0.7037 0.0459
vn -0.7242 -0.6896 -0.0000
vn -0.7090 0.7037 -0.0459
vn -0.7242 0.6896 -0.0000
vn -0.7090 0.7037 0.0459
vn -0.0000 0.5371 0.8435
vn 0.7090 0.7037 0.0459
vn 0.7242 0.6896 -0.0000
vn 0.7090 0.7037 -0.0459
vn -0.0000 0.5371 -0.8435
vt 0.000000 0.000000
s 1
usemtl Material.001
f 1/1/1 3/1/2 4/1/3 5/1/4 8/1/5 7/1/6 6/1/7 2/1/8
f 9/1/9 10/1/10 16/1/11 15/1/12 14/1/13 13/1/14 12/1/15 11/1/16
f 8/1/5 14/1/13 15/1/12 7/1/6
f 4/1/3 12/1/15 13/1/14 5/1/4
f 1/1/1 9/1/9 11/1/16 3/1/2
f 7/1/6 15/1/12 16/1/11 6/1/7
f 5/1/4 13/1/14 14/1/13 8/1/5
f 3/1/2 11/1/16 12/1/15 4/1/3
f 2/1/8 10/1/10 9/1/9 1/1/1
f 6/1/7 16/1/11 10/1/10 2/1/8
