# Blender 4.3.2
# www.blender.org
mtllib Needle.mtl
o Plane
v 0.000000 0.000000 -0.881064
v -0.061697 0.000000 0.000000
v 0.000000 0.066601 0.000000
v 0.061697 0.000000 0.000000
v 0.000000 0.000000 0.881064
v 0.000000 -0.066601 0.000000
vn -0.7326 -0.6787 0.0513
vn 0.7326 -0.6787 0.0513
vn 0.7326 0.6787 0.0513
vn -0.7326 0.6787 0.0513
vn -0.7326 0.6787 -0.0513
vn -0.7326 -0.6787 -0.0513
vn 0.7326 -0.6787 -0.0513
vn 0.7326 0.6787 -0.0513
vt 0.102795 0.000256
vt 0.102795 0.999744
vt 0.000256 0.005935
vt 0.103307 0.994065
vt 0.205846 0.000256
vt 0.205846 0.999744
vt 0.515512 0.005935
vt 0.618050 0.000256
vt 0.618050 0.999744
vt 0.309409 0.994065
vt 0.411948 0.000256
vt 0.411948 0.999744
vt 0.514999 0.994065
vt 0.412461 0.999744
vt 0.412461 0.000256
vt 0.618563 0.999341
vt 0.618563 0.000256
vt 0.721143 0.994466
vt 0.824351 0.998214
vt 0.721655 0.998215
vt 0.776923 0.000256
vt 0.308897 0.005935
vt 0.206358 0.999744
vt 0.206358 0.000256
s 0
f 3/1/1 1/2/1 4/3/1
f 2/4/2 1/5/2 3/6/2
f 2/7/3 6/8/3 1/9/3
f 4/10/4 1/11/4 6/12/4
f 4/13/5 6/14/5 5/15/5
f 4/16/6 5/17/6 3/18/6
f 2/19/7 3/20/7 5/21/7
f 2/22/8 5/23/8 6/24/8
